<?xml version="1.0" standalone="no"?>
 <!DOCTYPE svg PUBLIC "-//W3C//DTD SVG 1.1//EN" 
 "http://www.w3.org/Graphics/SVG/1.1/DTD/svg11.dtd"> 
<svg
  xmlns:svg="http://www.w3.org/2000/svg"
  xmlns="http://www.w3.org/2000/svg"
  xmlns:xlink="http://www.w3.org/1999/xlink"
  version="1.1"
  width="297.0022mm" height="210.0072mm" viewBox="0.0000 0.0000 297.0022 210.0072">
<title>SVG Image created as MiniBurst-B_Cu.svg date 2024/09/07 18:17:58 </title>
  <desc>Image generated by PCBNEW </desc>
<g style="fill:#000000; fill-opacity:1.0000;stroke:#000000; stroke-opacity:1.0000;
stroke-linecap:round; stroke-linejoin:round;"
 transform="translate(0 0) scale(1 1)">
<path style="fill:#000000; fill-opacity:1.0000; stroke:none;fill-rule:evenodd;"
d="M 131.1620,51.6380
131.1810,51.5423
131.2352,51.4612
131.3163,51.4070
131.4120,51.3880
132.4360,51.3880
132.5317,51.4070
132.6128,51.4612
132.6670,51.5423
132.6860,51.6380
132.6860,52.6620
132.6670,52.7577
132.6128,52.8388
132.5317,52.8930
132.4360,52.9120
131.4120,52.9120
131.3163,52.8930
131.2352,52.8388
131.1810,52.7577
131.1620,52.6620
Z" /> 
</g>
<g style="fill:#000000; fill-opacity:1.0000; stroke:none;">
<circle cx="133.9240" cy="52.1500" r="0.7620" /> 
</g>
<g style="fill:#000000; fill-opacity:1.0000; stroke:none;">
<circle cx="135.9240" cy="52.1500" r="0.7620" /> 
</g>
<g style="fill:#000000; fill-opacity:1.0000; stroke:none;">
<circle cx="135.9240" cy="57.1500" r="0.7620" /> 
</g>
<g style="fill:#000000; fill-opacity:1.0000; stroke:none;">
<circle cx="133.9240" cy="57.1500" r="0.7620" /> 
</g>
<g style="fill:#000000; fill-opacity:1.0000; stroke:none;">
<circle cx="131.9240" cy="57.1500" r="0.7620" /> 
</g>
<g style="fill:#000000; fill-opacity:1.0000; stroke:none;">
<circle cx="98.9240" cy="139.9000" r="3.5000" /> 
</g>
<g style="fill:#000000; fill-opacity:1.0000; stroke:none;">
<circle cx="114.9240" cy="139.9000" r="3.5000" /> 
</g>
<g style="fill:#000000; fill-opacity:1.0000; stroke:none;">
<circle cx="98.9240" cy="120.6500" r="3.5000" /> 
</g>
<g style="fill:#000000; fill-opacity:1.0000; stroke:none;">
<circle cx="114.9240" cy="120.6500" r="3.5000" /> 
</g>
<g style="fill:#000000; fill-opacity:1.0000; stroke:none;">
<circle cx="114.4240" cy="54.3425" r="4.0000" /> 
<path style="fill:#000000; fill-opacity:1.0000; stroke:none;fill-rule:evenodd;"
d="M 142.7190,133.5500
142.7190,131.7500
144.5190,131.7500
144.5190,133.5500
Z" /> 
</g>
<g style="fill:#000000; fill-opacity:1.0000; stroke:none;">
<circle cx="146.1590" cy="132.6500" r="0.9000" /> 
<path style="fill:#000000; fill-opacity:1.0000; stroke:none;fill-rule:evenodd;"
d="M 142.4790,138.9350
144.3090,138.9350
144.3090,140.8650
142.4790,140.8650
Z" /> 
</g>
<g style="fill:#000000; fill-opacity:1.0000; stroke:none;">
<circle cx="154.7940" cy="139.9000" r="1.0650" /> 
</g>
<g style="fill:#000000; fill-opacity:1.0000; stroke:none;">
<circle cx="146.4940" cy="139.9000" r="1.0650" /> 
</g>
<g style="fill:#000000; fill-opacity:1.0000; stroke:none;">
<circle cx="144.9855" cy="65.5090" r="1.0000" /> 
<circle cx="149.3150" cy="69.8385" r="1.0000" /> 
<circle cx="149.3150" cy="75.9615" r="1.0000" /> 
<circle cx="144.9855" cy="80.2910" r="1.0000" /> 
<circle cx="138.8625" cy="80.2910" r="1.0000" /> 
<circle cx="134.5330" cy="75.9615" r="1.0000" /> 
<circle cx="134.5330" cy="69.8385" r="1.0000" /> 
<circle cx="138.8625" cy="65.5090" r="1.0000" /> 
<circle cx="144.5740" cy="72.9000" r="1.0000" /> 
</g>
<g style="fill:none; 
stroke:#000000; stroke-width:4.2000; stroke-opacity:1; 
stroke-linecap:round; stroke-linejoin:round;">
<path d="M98.0240 28.4000
L100.8240 28.4000
" />
<path d="M98.0240 150.9000
L100.8240 150.9000
" />
<path style="fill:#000000; fill-opacity:1.0000; stroke:none;fill-rule:evenodd;"
d="M 127.7390,111.8880
127.7390,110.0880
129.5390,110.0880
129.5390,111.8880
Z" /> 
</g>
<g style="fill:#000000; fill-opacity:1.0000; stroke:none;">
<circle cx="131.1790" cy="110.9880" r="0.9000" /> 
<path style="fill:#000000; fill-opacity:1.0000; stroke:none;fill-rule:evenodd;"
d="M 141.3090,140.8650
139.4790,140.8650
139.4790,138.9350
141.3090,138.9350
Z" /> 
</g>
<g style="fill:#000000; fill-opacity:1.0000; stroke:none;">
<circle cx="128.9940" cy="139.9000" r="1.0650" /> 
</g>
<g style="fill:#000000; fill-opacity:1.0000; stroke:none;">
<circle cx="137.2940" cy="139.9000" r="1.0650" /> 
<path style="fill:#000000; fill-opacity:1.0000; stroke:none;fill-rule:evenodd;"
d="M 127.7490,76.8880
127.7490,75.0880
129.5490,75.0880
129.5490,76.8880
Z" /> 
</g>
<g style="fill:#000000; fill-opacity:1.0000; stroke:none;">
<circle cx="131.1890" cy="75.9880" r="0.9000" /> 
<path style="fill:#000000; fill-opacity:1.0000; stroke:none;fill-rule:evenodd;"
d="M 141.3390,121.6150
139.5090,121.6150
139.5090,119.6850
141.3390,119.6850
Z" /> 
</g>
<g style="fill:#000000; fill-opacity:1.0000; stroke:none;">
<circle cx="129.0240" cy="120.6500" r="1.0650" /> 
</g>
<g style="fill:#000000; fill-opacity:1.0000; stroke:none;">
<circle cx="137.3240" cy="120.6500" r="1.0650" /> 
<path style="fill:#000000; fill-opacity:1.0000; stroke:none;fill-rule:evenodd;"
d="M 127.7390,91.8880
127.7390,90.0880
129.5390,90.0880
129.5390,91.8880
Z" /> 
</g>
<g style="fill:#000000; fill-opacity:1.0000; stroke:none;">
<circle cx="131.1790" cy="90.9880" r="0.9000" /> 
<path style="fill:#000000; fill-opacity:1.0000; stroke:none;fill-rule:evenodd;"
d="M 141.0440,131.7500
141.0440,133.5500
139.2440,133.5500
139.2440,131.7500
Z" /> 
</g>
<g style="fill:#000000; fill-opacity:1.0000; stroke:none;">
<circle cx="137.6040" cy="132.6500" r="0.9000" /> 
</g>
<g style="fill:#000000; fill-opacity:1.0000; stroke:none;">
<circle cx="151.9240" cy="62.1500" r="0.9000" /> 
</g>
<g style="fill:#000000; fill-opacity:1.0000; stroke:none;">
<circle cx="149.4240" cy="62.1500" r="0.9000" /> 
<path style="fill:#000000; fill-opacity:1.0000; stroke:none;fill-rule:evenodd;"
d="M 147.8240,61.2500
147.8240,63.0500
146.0240,63.0500
146.0240,61.2500
Z" /> 
</g>
<g style="fill:none; 
stroke:#000000; stroke-width:2.7200; stroke-opacity:1; 
stroke-linecap:round; stroke-linejoin:round;">
<path d="M154.2240 54.9100
L154.2240 54.3900
" />
<path d="M144.6240 54.9100
L144.6240 54.3900
" />
<path style="fill:#000000; fill-opacity:1.0000; stroke:none;fill-rule:evenodd;"
d="M 141.0740,127.0000
141.0740,128.8000
139.2740,128.8000
139.2740,127.0000
Z" /> 
</g>
<g style="fill:#000000; fill-opacity:1.0000; stroke:none;">
<circle cx="137.6340" cy="127.9000" r="0.9000" /> 
<path style="fill:#000000; fill-opacity:1.0000; stroke:none;fill-rule:evenodd;"
d="M 142.7240,128.8000
142.7240,127.0000
144.5240,127.0000
144.5240,128.8000
Z" /> 
</g>
<g style="fill:#000000; fill-opacity:1.0000; stroke:none;">
<circle cx="146.1640" cy="127.9000" r="0.9000" /> 
<path style="fill:#000000; fill-opacity:1.0000; stroke:none;fill-rule:evenodd;"
d="M 127.7390,101.8880
127.7390,100.0880
129.5390,100.0880
129.5390,101.8880
Z" /> 
</g>
<g style="fill:#000000; fill-opacity:1.0000; stroke:none;">
<circle cx="131.1790" cy="100.9880" r="0.9000" /> 
<path style="fill:#000000; fill-opacity:1.0000; stroke:none;fill-rule:evenodd;"
d="M 127.7390,81.8880
127.7390,80.0880
129.5390,80.0880
129.5390,81.8880
Z" /> 
</g>
<g style="fill:#000000; fill-opacity:1.0000; stroke:none;">
<circle cx="131.1790" cy="80.9880" r="0.9000" /> 
<path style="fill:#000000; fill-opacity:1.0000; stroke:none;fill-rule:evenodd;"
d="M 142.5090,38.6850
144.3390,38.6850
144.3390,40.6150
142.5090,40.6150
Z" /> 
</g>
<g style="fill:#000000; fill-opacity:1.0000; stroke:none;">
<circle cx="154.8240" cy="39.6500" r="1.0650" /> 
</g>
<g style="fill:#000000; fill-opacity:1.0000; stroke:none;">
<circle cx="146.5240" cy="39.6500" r="1.0650" /> 
<path style="fill:#000000; fill-opacity:1.0000; stroke:none;fill-rule:evenodd;"
d="M 127.7390,106.8880
127.7390,105.0880
129.5390,105.0880
129.5390,106.8880
Z" /> 
</g>
<g style="fill:#000000; fill-opacity:1.0000; stroke:none;">
<circle cx="131.1790" cy="105.9880" r="0.9000" /> 
</g>
<g style="fill:#000000; fill-opacity:1.0000; stroke:none;">
<circle cx="114.9240" cy="39.6500" r="3.5000" /> 
<path style="fill:#000000; fill-opacity:1.0000; stroke:none;fill-rule:evenodd;"
d="M 127.7390,96.8880
127.7390,95.0880
129.5390,95.0880
129.5390,96.8880
Z" /> 
</g>
<g style="fill:#000000; fill-opacity:1.0000; stroke:none;">
<circle cx="131.1790" cy="95.9880" r="0.9000" /> 
<path style="fill:#000000; fill-opacity:1.0000; stroke:none;fill-rule:evenodd;"
d="M 141.3390,40.6150
139.5090,40.6150
139.5090,38.6850
141.3390,38.6850
Z" /> 
</g>
<g style="fill:#000000; fill-opacity:1.0000; stroke:none;">
<circle cx="129.0240" cy="39.6500" r="1.0650" /> 
</g>
<g style="fill:#000000; fill-opacity:1.0000; stroke:none;">
<circle cx="137.3240" cy="39.6500" r="1.0650" /> 
<path style="fill:#000000; fill-opacity:1.0000; stroke:none;fill-rule:evenodd;"
d="M 127.7390,86.8880
127.7390,85.0880
129.5390,85.0880
129.5390,86.8880
Z" /> 
</g>
<g style="fill:#000000; fill-opacity:1.0000; stroke:none;">
<circle cx="131.1790" cy="85.9880" r="0.9000" /> 
</g>
<g style="fill:#000000; fill-opacity:1.0000; stroke:none;">
<circle cx="98.9240" cy="39.6500" r="3.5000" /> 
<path style="fill:#000000; fill-opacity:1.0000; stroke:none;fill-rule:evenodd;"
d="M 142.5090,119.6850
144.3390,119.6850
144.3390,121.6150
142.5090,121.6150
Z" /> 
</g>
<g style="fill:#000000; fill-opacity:1.0000; stroke:none;">
<circle cx="154.8240" cy="120.6500" r="1.0650" /> 
</g>
<g style="fill:#000000; fill-opacity:1.0000; stroke:none;">
<circle cx="146.5240" cy="120.6500" r="1.0650" /> 
<path style="fill:#000000; fill-opacity:1.0000; stroke:none;fill-rule:evenodd;"
d="M 133.0915,122.9930
133.1105,122.8973
133.1647,122.8162
133.2458,122.7620
133.3415,122.7430
133.8665,122.7430
133.9622,122.7620
134.0433,122.8162
134.0975,122.8973
134.1165,122.9930
134.1165,123.8930
134.0975,123.9887
134.0433,124.0698
133.9622,124.1240
133.8665,124.1430
133.3415,124.1430
133.2458,124.1240
133.1647,124.0698
133.1105,123.9887
133.0915,123.8930
Z" /> 
<path style="fill:#000000; fill-opacity:1.0000; stroke:none;fill-rule:evenodd;"
d="M 134.9165,122.9930
134.9355,122.8973
134.9897,122.8162
135.0708,122.7620
135.1665,122.7430
135.6915,122.7430
135.7872,122.7620
135.8683,122.8162
135.9225,122.8973
135.9415,122.9930
135.9415,123.8930
135.9225,123.9887
135.8683,124.0698
135.7872,124.1240
135.6915,124.1430
135.1665,124.1430
135.0708,124.1240
134.9897,124.0698
134.9355,123.9887
134.9165,123.8930
Z" /> 
<path style="fill:#000000; fill-opacity:1.0000; stroke:none;fill-rule:evenodd;"
d="M 135.0950,90.2165
135.1907,90.2355
135.2718,90.2897
135.3260,90.3708
135.3450,90.4665
135.3450,91.1415
135.3260,91.2372
135.2718,91.3183
135.1907,91.3725
135.0950,91.3915
134.1450,91.3915
134.0493,91.3725
133.9682,91.3183
133.9140,91.2372
133.8950,91.1415
133.8950,90.4665
133.9140,90.3708
133.9682,90.2897
134.0493,90.2355
134.1450,90.2165
Z" /> 
<path style="fill:#000000; fill-opacity:1.0000; stroke:none;fill-rule:evenodd;"
d="M 135.0950,92.2915
135.1907,92.3105
135.2718,92.3647
135.3260,92.4458
135.3450,92.5415
135.3450,93.2165
135.3260,93.3122
135.2718,93.3933
135.1907,93.4475
135.0950,93.4665
134.1450,93.4665
134.0493,93.4475
133.9682,93.3933
133.9140,93.3122
133.8950,93.2165
133.8950,92.5415
133.9140,92.4458
133.9682,92.3647
134.0493,92.3105
134.1450,92.2915
Z" /> 
<path style="fill:#000000; fill-opacity:1.0000; stroke:none;fill-rule:evenodd;"
d="M 132.8140,137.5980
132.8330,137.5023
132.8872,137.4212
132.9683,137.3670
133.0640,137.3480
133.5890,137.3480
133.6847,137.3670
133.7658,137.4212
133.8200,137.5023
133.8390,137.5980
133.8390,138.4980
133.8200,138.5937
133.7658,138.6748
133.6847,138.7290
133.5890,138.7480
133.0640,138.7480
132.9683,138.7290
132.8872,138.6748
132.8330,138.5937
132.8140,138.4980
Z" /> 
<path style="fill:#000000; fill-opacity:1.0000; stroke:none;fill-rule:evenodd;"
d="M 134.6390,137.5980
134.6580,137.5023
134.7122,137.4212
134.7933,137.3670
134.8890,137.3480
135.4140,137.3480
135.5097,137.3670
135.5908,137.4212
135.6450,137.5023
135.6640,137.5980
135.6640,138.4980
135.6450,138.5937
135.5908,138.6748
135.5097,138.7290
135.4140,138.7480
134.8890,138.7480
134.7933,138.7290
134.7122,138.6748
134.6580,138.5937
134.6390,138.4980
Z" /> 
<path style="fill:#000000; fill-opacity:1.0000; stroke:none;fill-rule:evenodd;"
d="M 154.4440,64.9620
154.3483,64.9430
154.2672,64.8888
154.2130,64.8077
154.1940,64.7120
154.1940,64.2120
154.2130,64.1163
154.2672,64.0352
154.3483,63.9810
154.4440,63.9620
155.9440,63.9620
156.0397,63.9810
156.1208,64.0352
156.1750,64.1163
156.1940,64.2120
156.1940,64.7120
156.1750,64.8077
156.1208,64.8888
156.0397,64.9430
155.9440,64.9620
Z" /> 
<path style="fill:#000000; fill-opacity:1.0000; stroke:none;fill-rule:evenodd;"
d="M 150.6800,44.8815
150.5843,44.8625
150.5032,44.8083
150.4490,44.7272
150.4300,44.6315
150.4300,44.1065
150.4490,44.0108
150.5032,43.9297
150.5843,43.8755
150.6800,43.8565
151.5800,43.8565
151.6757,43.8755
151.7568,43.9297
151.8110,44.0108
151.8300,44.1065
151.8300,44.6315
151.8110,44.7272
151.7568,44.8083
151.6757,44.8625
151.5800,44.8815
Z" /> 
<path style="fill:#000000; fill-opacity:1.0000; stroke:none;fill-rule:evenodd;"
d="M 150.6800,43.0565
150.5843,43.0375
150.5032,42.9833
150.4490,42.9022
150.4300,42.8065
150.4300,42.2815
150.4490,42.1858
150.5032,42.1047
150.5843,42.0505
150.6800,42.0315
151.5800,42.0315
151.6757,42.0505
151.7568,42.1047
151.8110,42.1858
151.8300,42.2815
151.8300,42.8065
151.8110,42.9022
151.7568,42.9833
151.6757,43.0375
151.5800,43.0565
Z" /> 
<path style="fill:#000000; fill-opacity:1.0000; stroke:none;fill-rule:evenodd;"
d="M 134.9320,105.1400
134.8363,105.1210
134.7552,105.0668
134.7010,104.9857
134.6820,104.8900
134.6820,104.3650
134.7010,104.2693
134.7552,104.1882
134.8363,104.1340
134.9320,104.1150
135.8320,104.1150
135.9277,104.1340
136.0088,104.1882
136.0630,104.2693
136.0820,104.3650
136.0820,104.8900
136.0630,104.9857
136.0088,105.0668
135.9277,105.1210
135.8320,105.1400
Z" /> 
<path style="fill:#000000; fill-opacity:1.0000; stroke:none;fill-rule:evenodd;"
d="M 134.9320,103.3150
134.8363,103.2960
134.7552,103.2418
134.7010,103.1607
134.6820,103.0650
134.6820,102.5400
134.7010,102.4443
134.7552,102.3632
134.8363,102.3090
134.9320,102.2900
135.8320,102.2900
135.9277,102.3090
136.0088,102.3632
136.0630,102.4443
136.0820,102.5400
136.0820,103.0650
136.0630,103.1607
136.0088,103.2418
135.9277,103.2960
135.8320,103.3150
Z" /> 
<path style="fill:#000000; fill-opacity:1.0000; stroke:none;fill-rule:evenodd;"
d="M 148.3690,134.1065
148.2733,134.0875
148.1922,134.0333
148.1380,133.9522
148.1190,133.8565
148.1190,133.1815
148.1380,133.0858
148.1922,133.0047
148.2733,132.9505
148.3690,132.9315
149.3190,132.9315
149.4147,132.9505
149.4958,133.0047
149.5500,133.0858
149.5690,133.1815
149.5690,133.8565
149.5500,133.9522
149.4958,134.0333
149.4147,134.0875
149.3190,134.1065
Z" /> 
<path style="fill:#000000; fill-opacity:1.0000; stroke:none;fill-rule:evenodd;"
d="M 148.3690,132.0315
148.2733,132.0125
148.1922,131.9583
148.1380,131.8772
148.1190,131.7815
148.1190,131.1065
148.1380,131.0108
148.1922,130.9297
148.2733,130.8755
148.3690,130.8565
149.3190,130.8565
149.4147,130.8755
149.4958,130.9297
149.5500,131.0108
149.5690,131.1065
149.5690,131.7815
149.5500,131.8772
149.4958,131.9583
149.4147,132.0125
149.3190,132.0315
Z" /> 
<path style="fill:#000000; fill-opacity:1.0000; stroke:none;fill-rule:evenodd;"
d="M 147.0080,41.9845
147.1037,42.0035
147.1848,42.0577
147.2390,42.1388
147.2580,42.2345
147.2580,42.7595
147.2390,42.8552
147.1848,42.9363
147.1037,42.9905
147.0080,43.0095
146.1080,43.0095
146.0123,42.9905
145.9312,42.9363
145.8770,42.8552
145.8580,42.7595
145.8580,42.2345
145.8770,42.1388
145.9312,42.0577
146.0123,42.0035
146.1080,41.9845
Z" /> 
<path style="fill:#000000; fill-opacity:1.0000; stroke:none;fill-rule:evenodd;"
d="M 147.0080,43.8095
147.1037,43.8285
147.1848,43.8827
147.2390,43.9638
147.2580,44.0595
147.2580,44.5845
147.2390,44.6802
147.1848,44.7613
147.1037,44.8155
147.0080,44.8345
146.1080,44.8345
146.0123,44.8155
145.9312,44.7613
145.8770,44.6802
145.8580,44.5845
145.8580,44.0595
145.8770,43.9638
145.9312,43.8827
146.0123,43.8285
146.1080,43.8095
Z" /> 
<path style="fill:#000000; fill-opacity:1.0000; stroke:none;fill-rule:evenodd;"
d="M 148.4690,45.9140
148.3829,45.8969
148.3099,45.8481
148.2611,45.7751
148.2440,45.6890
148.2440,45.2390
148.2611,45.1529
148.3099,45.0799
148.3829,45.0311
148.4690,45.0140
149.2190,45.0140
149.3051,45.0311
149.3781,45.0799
149.4269,45.1529
149.4440,45.2390
149.4440,45.6890
149.4269,45.7751
149.3781,45.8481
149.3051,45.8969
149.2190,45.9140
Z" /> 
<path style="fill:#000000; fill-opacity:1.0000; stroke:none;fill-rule:evenodd;"
d="M 148.4690,42.6140
148.3829,42.5969
148.3099,42.5481
148.2611,42.4751
148.2440,42.3890
148.2440,41.9390
148.2611,41.8529
148.3099,41.7799
148.3829,41.7311
148.4690,41.7140
149.2190,41.7140
149.3051,41.7311
149.3781,41.7799
149.4269,41.8529
149.4440,41.9390
149.4440,42.3890
149.4269,42.4751
149.3781,42.5481
149.3051,42.5969
149.2190,42.6140
Z" /> 
<path style="fill:#000000; fill-opacity:1.0000; stroke:none;fill-rule:evenodd;"
d="M 140.7390,40.6180
140.7964,40.6294
140.8451,40.6619
140.8776,40.7106
140.8890,40.7680
140.8890,42.4180
140.8776,42.4754
140.8451,42.5241
140.7964,42.5566
140.7390,42.5680
140.4390,42.5680
140.3816,42.5566
140.3329,42.5241
140.3004,42.4754
140.2890,42.4180
140.2890,40.7680
140.3004,40.7106
140.3329,40.6619
140.3816,40.6294
140.4390,40.6180
Z" /> 
<path style="fill:#000000; fill-opacity:1.0000; stroke:none;fill-rule:evenodd;"
d="M 142.0090,40.6180
142.0664,40.6294
142.1151,40.6619
142.1476,40.7106
142.1590,40.7680
142.1590,42.4180
142.1476,42.4754
142.1151,42.5241
142.0664,42.5566
142.0090,42.5680
141.7090,42.5680
141.6516,42.5566
141.6029,42.5241
141.5704,42.4754
141.5590,42.4180
141.5590,40.7680
141.5704,40.7106
141.6029,40.6619
141.6516,40.6294
141.7090,40.6180
Z" /> 
<path style="fill:#000000; fill-opacity:1.0000; stroke:none;fill-rule:evenodd;"
d="M 143.2790,40.6180
143.3364,40.6294
143.3851,40.6619
143.4176,40.7106
143.4290,40.7680
143.4290,42.4180
143.4176,42.4754
143.3851,42.5241
143.3364,42.5566
143.2790,42.5680
142.9790,42.5680
142.9216,42.5566
142.8729,42.5241
142.8404,42.4754
142.8290,42.4180
142.8290,40.7680
142.8404,40.7106
142.8729,40.6619
142.9216,40.6294
142.9790,40.6180
Z" /> 
<path style="fill:#000000; fill-opacity:1.0000; stroke:none;fill-rule:evenodd;"
d="M 144.5490,40.6180
144.6064,40.6294
144.6551,40.6619
144.6876,40.7106
144.6990,40.7680
144.6990,42.4180
144.6876,42.4754
144.6551,42.5241
144.6064,42.5566
144.5490,42.5680
144.2490,42.5680
144.1916,42.5566
144.1429,42.5241
144.1104,42.4754
144.0990,42.4180
144.0990,40.7680
144.1104,40.7106
144.1429,40.6619
144.1916,40.6294
144.2490,40.6180
Z" /> 
<path style="fill:#000000; fill-opacity:1.0000; stroke:none;fill-rule:evenodd;"
d="M 144.5490,45.5680
144.6064,45.5794
144.6551,45.6119
144.6876,45.6606
144.6990,45.7180
144.6990,47.3680
144.6876,47.4254
144.6551,47.4741
144.6064,47.5066
144.5490,47.5180
144.2490,47.5180
144.1916,47.5066
144.1429,47.4741
144.1104,47.4254
144.0990,47.3680
144.0990,45.7180
144.1104,45.6606
144.1429,45.6119
144.1916,45.5794
144.2490,45.5680
Z" /> 
<path style="fill:#000000; fill-opacity:1.0000; stroke:none;fill-rule:evenodd;"
d="M 143.2790,45.5680
143.3364,45.5794
143.3851,45.6119
143.4176,45.6606
143.4290,45.7180
143.4290,47.3680
143.4176,47.4254
143.3851,47.4741
143.3364,47.5066
143.2790,47.5180
142.9790,47.5180
142.9216,47.5066
142.8729,47.4741
142.8404,47.4254
142.8290,47.3680
142.8290,45.7180
142.8404,45.6606
142.8729,45.6119
142.9216,45.5794
142.9790,45.5680
Z" /> 
<path style="fill:#000000; fill-opacity:1.0000; stroke:none;fill-rule:evenodd;"
d="M 142.0090,45.5680
142.0664,45.5794
142.1151,45.6119
142.1476,45.6606
142.1590,45.7180
142.1590,47.3680
142.1476,47.4254
142.1151,47.4741
142.0664,47.5066
142.0090,47.5180
141.7090,47.5180
141.6516,47.5066
141.6029,47.4741
141.5704,47.4254
141.5590,47.3680
141.5590,45.7180
141.5704,45.6606
141.6029,45.6119
141.6516,45.5794
141.7090,45.5680
Z" /> 
<path style="fill:#000000; fill-opacity:1.0000; stroke:none;fill-rule:evenodd;"
d="M 140.7390,45.5680
140.7964,45.5794
140.8451,45.6119
140.8776,45.6606
140.8890,45.7180
140.8890,47.3680
140.8776,47.4254
140.8451,47.4741
140.7964,47.5066
140.7390,47.5180
140.4390,47.5180
140.3816,47.5066
140.3329,47.4741
140.3004,47.4254
140.2890,47.3680
140.2890,45.7180
140.3004,45.6606
140.3329,45.6119
140.3816,45.5794
140.4390,45.5680
Z" /> 
<path style="fill:#000000; fill-opacity:1.0000; stroke:none;fill-rule:evenodd;"
d="M 147.1740,89.4380
147.1930,89.3423
147.2472,89.2612
147.3283,89.2070
147.4240,89.1880
150.4240,89.1880
150.5197,89.2070
150.6008,89.2612
150.6550,89.3423
150.6740,89.4380
150.6740,90.5380
150.6550,90.6337
150.6008,90.7148
150.5197,90.7690
150.4240,90.7880
147.4240,90.7880
147.3283,90.7690
147.2472,90.7148
147.1930,90.6337
147.1740,90.5380
Z" /> 
<path style="fill:#000000; fill-opacity:1.0000; stroke:none;fill-rule:evenodd;"
d="M 152.5740,89.4380
152.5930,89.3423
152.6472,89.2612
152.7283,89.2070
152.8240,89.1880
155.8240,89.1880
155.9197,89.2070
156.0008,89.2612
156.0550,89.3423
156.0740,89.4380
156.0740,90.5380
156.0550,90.6337
156.0008,90.7148
155.9197,90.7690
155.8240,90.7880
152.8240,90.7880
152.7283,90.7690
152.6472,90.7148
152.5930,90.6337
152.5740,90.5380
Z" /> 
<path style="fill:#000000; fill-opacity:1.0000; stroke:none;fill-rule:evenodd;"
d="M 154.4440,79.1220
154.3483,79.1030
154.2672,79.0488
154.2130,78.9677
154.1940,78.8720
154.1940,78.3720
154.2130,78.2763
154.2672,78.1952
154.3483,78.1410
154.4440,78.1220
155.9440,78.1220
156.0397,78.1410
156.1208,78.1952
156.1750,78.2763
156.1940,78.3720
156.1940,78.8720
156.1750,78.9677
156.1208,79.0488
156.0397,79.1030
155.9440,79.1220
Z" /> 
<path style="fill:#000000; fill-opacity:1.0000; stroke:none;fill-rule:evenodd;"
d="M 153.5240,84.6500
153.5050,84.7457
153.4508,84.8268
153.3697,84.8810
153.2740,84.9000
152.7490,84.9000
152.6533,84.8810
152.5722,84.8268
152.5180,84.7457
152.4990,84.6500
152.4990,83.7500
152.5180,83.6543
152.5722,83.5732
152.6533,83.5190
152.7490,83.5000
153.2740,83.5000
153.3697,83.5190
153.4508,83.5732
153.5050,83.6543
153.5240,83.7500
Z" /> 
<path style="fill:#000000; fill-opacity:1.0000; stroke:none;fill-rule:evenodd;"
d="M 151.6990,84.6500
151.6800,84.7457
151.6258,84.8268
151.5447,84.8810
151.4490,84.9000
150.9240,84.9000
150.8283,84.8810
150.7472,84.8268
150.6930,84.7457
150.6740,84.6500
150.6740,83.7500
150.6930,83.6543
150.7472,83.5732
150.8283,83.5190
150.9240,83.5000
151.4490,83.5000
151.5447,83.5190
151.6258,83.5732
151.6800,83.6543
151.6990,83.7500
Z" /> 
<path style="fill:#000000; fill-opacity:1.0000; stroke:none;fill-rule:evenodd;"
d="M 134.9070,109.1715
134.8113,109.1525
134.7302,109.0983
134.6760,109.0172
134.6570,108.9215
134.6570,108.2465
134.6760,108.1508
134.7302,108.0697
134.8113,108.0155
134.9070,107.9965
135.8570,107.9965
135.9527,108.0155
136.0338,108.0697
136.0880,108.1508
136.1070,108.2465
136.1070,108.9215
136.0880,109.0172
136.0338,109.0983
135.9527,109.1525
135.8570,109.1715
Z" /> 
<path style="fill:#000000; fill-opacity:1.0000; stroke:none;fill-rule:evenodd;"
d="M 134.9070,107.0965
134.8113,107.0775
134.7302,107.0233
134.6760,106.9422
134.6570,106.8465
134.6570,106.1715
134.6760,106.0758
134.7302,105.9947
134.8113,105.9405
134.9070,105.9215
135.8570,105.9215
135.9527,105.9405
136.0338,105.9947
136.0880,106.0758
136.1070,106.1715
136.1070,106.8465
136.0880,106.9422
136.0338,107.0233
135.9527,107.0775
135.8570,107.0965
Z" /> 
<path style="fill:#000000; fill-opacity:1.0000; stroke:none;fill-rule:evenodd;"
d="M 141.8530,90.3970
141.9391,90.4141
142.0121,90.4629
142.0609,90.5359
142.0780,90.6220
142.0780,91.0720
142.0609,91.1581
142.0121,91.2311
141.9391,91.2799
141.8530,91.2970
141.1030,91.2970
141.0169,91.2799
140.9439,91.2311
140.8951,91.1581
140.8780,91.0720
140.8780,90.6220
140.8951,90.5359
140.9439,90.4629
141.0169,90.4141
141.1030,90.3970
Z" /> 
<path style="fill:#000000; fill-opacity:1.0000; stroke:none;fill-rule:evenodd;"
d="M 141.8530,93.6970
141.9391,93.7141
142.0121,93.7629
142.0609,93.8359
142.0780,93.9220
142.0780,94.3720
142.0609,94.4581
142.0121,94.5311
141.9391,94.5799
141.8530,94.5970
141.1030,94.5970
141.0169,94.5799
140.9439,94.5311
140.8951,94.4581
140.8780,94.3720
140.8780,93.9220
140.8951,93.8359
140.9439,93.7629
141.0169,93.7141
141.1030,93.6970
Z" /> 
<path style="fill:#000000; fill-opacity:1.0000; stroke:none;fill-rule:evenodd;"
d="M 133.9910,46.1680
133.9049,46.1509
133.8319,46.1021
133.7831,46.0291
133.7660,45.9430
133.7660,45.4930
133.7831,45.4069
133.8319,45.3339
133.9049,45.2851
133.9910,45.2680
134.7410,45.2680
134.8271,45.2851
134.9001,45.3339
134.9489,45.4069
134.9660,45.4930
134.9660,45.9430
134.9489,46.0291
134.9001,46.1021
134.8271,46.1509
134.7410,46.1680
Z" /> 
<path style="fill:#000000; fill-opacity:1.0000; stroke:none;fill-rule:evenodd;"
d="M 133.9910,42.8680
133.9049,42.8509
133.8319,42.8021
133.7831,42.7291
133.7660,42.6430
133.7660,42.1930
133.7831,42.1069
133.8319,42.0339
133.9049,41.9851
133.9910,41.9680
134.7410,41.9680
134.8271,41.9851
134.9001,42.0339
134.9489,42.1069
134.9660,42.1930
134.9660,42.6430
134.9489,42.7291
134.9001,42.8021
134.8271,42.8509
134.7410,42.8680
Z" /> 
<path style="fill:#000000; fill-opacity:1.0000; stroke:none;fill-rule:evenodd;"
d="M 143.6430,101.7510
143.5569,101.7339
143.4839,101.6851
143.4351,101.6121
143.4180,101.5260
143.4180,101.0760
143.4351,100.9899
143.4839,100.9169
143.5569,100.8681
143.6430,100.8510
144.3930,100.8510
144.4791,100.8681
144.5521,100.9169
144.6009,100.9899
144.6180,101.0760
144.6180,101.5260
144.6009,101.6121
144.5521,101.6851
144.4791,101.7339
144.3930,101.7510
Z" /> 
<path style="fill:#000000; fill-opacity:1.0000; stroke:none;fill-rule:evenodd;"
d="M 143.6430,98.4510
143.5569,98.4339
143.4839,98.3851
143.4351,98.3121
143.4180,98.2260
143.4180,97.7760
143.4351,97.6899
143.4839,97.6169
143.5569,97.5681
143.6430,97.5510
144.3930,97.5510
144.4791,97.5681
144.5521,97.6169
144.6009,97.6899
144.6180,97.7760
144.6180,98.2260
144.6009,98.3121
144.5521,98.3851
144.4791,98.4339
144.3930,98.4510
Z" /> 
<path style="fill:#000000; fill-opacity:1.0000; stroke:none;fill-rule:evenodd;"
d="M 132.8140,135.6930
132.8330,135.5973
132.8872,135.5162
132.9683,135.4620
133.0640,135.4430
133.5890,135.4430
133.6847,135.4620
133.7658,135.5162
133.8200,135.5973
133.8390,135.6930
133.8390,136.5930
133.8200,136.6887
133.7658,136.7698
133.6847,136.8240
133.5890,136.8430
133.0640,136.8430
132.9683,136.8240
132.8872,136.7698
132.8330,136.6887
132.8140,136.5930
Z" /> 
<path style="fill:#000000; fill-opacity:1.0000; stroke:none;fill-rule:evenodd;"
d="M 134.6390,135.6930
134.6580,135.5973
134.7122,135.5162
134.7933,135.4620
134.8890,135.4430
135.4140,135.4430
135.5097,135.4620
135.5908,135.5162
135.6450,135.5973
135.6640,135.6930
135.6640,136.5930
135.6450,136.6887
135.5908,136.7698
135.5097,136.8240
135.4140,136.8430
134.8890,136.8430
134.7933,136.8240
134.7122,136.7698
134.6580,136.6887
134.6390,136.5930
Z" /> 
<path style="fill:#000000; fill-opacity:1.0000; stroke:none;fill-rule:evenodd;"
d="M 131.6300,44.8815
131.5343,44.8625
131.4532,44.8083
131.3990,44.7272
131.3800,44.6315
131.3800,44.1065
131.3990,44.0108
131.4532,43.9297
131.5343,43.8755
131.6300,43.8565
132.5300,43.8565
132.6257,43.8755
132.7068,43.9297
132.7610,44.0108
132.7800,44.1065
132.7800,44.6315
132.7610,44.7272
132.7068,44.8083
132.6257,44.8625
132.5300,44.8815
Z" /> 
<path style="fill:#000000; fill-opacity:1.0000; stroke:none;fill-rule:evenodd;"
d="M 131.6300,43.0565
131.5343,43.0375
131.4532,42.9833
131.3990,42.9022
131.3800,42.8065
131.3800,42.2815
131.3990,42.1858
131.4532,42.1047
131.5343,42.0505
131.6300,42.0315
132.5300,42.0315
132.6257,42.0505
132.7068,42.1047
132.7610,42.1858
132.7800,42.2815
132.7800,42.8065
132.7610,42.9022
132.7068,42.9833
132.6257,43.0375
132.5300,43.0565
Z" /> 
<path style="fill:#000000; fill-opacity:1.0000; stroke:none;fill-rule:evenodd;"
d="M 141.2285,52.6460
141.2095,52.7417
141.1553,52.8228
141.0742,52.8770
140.9785,52.8960
140.4535,52.8960
140.3578,52.8770
140.2767,52.8228
140.2225,52.7417
140.2035,52.6460
140.2035,51.7460
140.2225,51.6503
140.2767,51.5692
140.3578,51.5150
140.4535,51.4960
140.9785,51.4960
141.0742,51.5150
141.1553,51.5692
141.2095,51.6503
141.2285,51.7460
Z" /> 
<path style="fill:#000000; fill-opacity:1.0000; stroke:none;fill-rule:evenodd;"
d="M 139.4035,52.6460
139.3845,52.7417
139.3303,52.8228
139.2492,52.8770
139.1535,52.8960
138.6285,52.8960
138.5328,52.8770
138.4517,52.8228
138.3975,52.7417
138.3785,52.6460
138.3785,51.7460
138.3975,51.6503
138.4517,51.5692
138.5328,51.5150
138.6285,51.4960
139.1535,51.4960
139.2492,51.5150
139.3303,51.5692
139.3845,51.6503
139.4035,51.7460
Z" /> 
<path style="fill:#000000; fill-opacity:1.0000; stroke:none;fill-rule:evenodd;"
d="M 154.4440,67.3220
154.3483,67.3030
154.2672,67.2488
154.2130,67.1677
154.1940,67.0720
154.1940,66.5720
154.2130,66.4763
154.2672,66.3952
154.3483,66.3410
154.4440,66.3220
155.9440,66.3220
156.0397,66.3410
156.1208,66.3952
156.1750,66.4763
156.1940,66.5720
156.1940,67.0720
156.1750,67.1677
156.1208,67.2488
156.0397,67.3030
155.9440,67.3220
Z" /> 
<path style="fill:#000000; fill-opacity:1.0000; stroke:none;fill-rule:evenodd;"
d="M 132.9460,134.1970
132.8886,134.1856
132.8399,134.1531
132.8074,134.1044
132.7960,134.0470
132.7960,132.3970
132.8074,132.3396
132.8399,132.2909
132.8886,132.2584
132.9460,132.2470
133.2460,132.2470
133.3034,132.2584
133.3521,132.2909
133.3846,132.3396
133.3960,132.3970
133.3960,134.0470
133.3846,134.1044
133.3521,134.1531
133.3034,134.1856
133.2460,134.1970
Z" /> 
<path style="fill:#000000; fill-opacity:1.0000; stroke:none;fill-rule:evenodd;"
d="M 131.6760,134.1970
131.6186,134.1856
131.5699,134.1531
131.5374,134.1044
131.5260,134.0470
131.5260,132.3970
131.5374,132.3396
131.5699,132.2909
131.6186,132.2584
131.6760,132.2470
131.9760,132.2470
132.0334,132.2584
132.0821,132.2909
132.1146,132.3396
132.1260,132.3970
132.1260,134.0470
132.1146,134.1044
132.0821,134.1531
132.0334,134.1856
131.9760,134.1970
Z" /> 
<path style="fill:#000000; fill-opacity:1.0000; stroke:none;fill-rule:evenodd;"
d="M 130.4060,134.1970
130.3486,134.1856
130.2999,134.1531
130.2674,134.1044
130.2560,134.0470
130.2560,132.3970
130.2674,132.3396
130.2999,132.2909
130.3486,132.2584
130.4060,132.2470
130.7060,132.2470
130.7634,132.2584
130.8121,132.2909
130.8446,132.3396
130.8560,132.3970
130.8560,134.0470
130.8446,134.1044
130.8121,134.1531
130.7634,134.1856
130.7060,134.1970
Z" /> 
<path style="fill:#000000; fill-opacity:1.0000; stroke:none;fill-rule:evenodd;"
d="M 129.1360,134.1970
129.0786,134.1856
129.0299,134.1531
128.9974,134.1044
128.9860,134.0470
128.9860,132.3970
128.9974,132.3396
129.0299,132.2909
129.0786,132.2584
129.1360,132.2470
129.4360,132.2470
129.4934,132.2584
129.5421,132.2909
129.5746,132.3396
129.5860,132.3970
129.5860,134.0470
129.5746,134.1044
129.5421,134.1531
129.4934,134.1856
129.4360,134.1970
Z" /> 
<path style="fill:#000000; fill-opacity:1.0000; stroke:none;fill-rule:evenodd;"
d="M 129.1360,129.2470
129.0786,129.2356
129.0299,129.2031
128.9974,129.1544
128.9860,129.0970
128.9860,127.4470
128.9974,127.3896
129.0299,127.3409
129.0786,127.3084
129.1360,127.2970
129.4360,127.2970
129.4934,127.3084
129.5421,127.3409
129.5746,127.3896
129.5860,127.4470
129.5860,129.0970
129.5746,129.1544
129.5421,129.2031
129.4934,129.2356
129.4360,129.2470
Z" /> 
<path style="fill:#000000; fill-opacity:1.0000; stroke:none;fill-rule:evenodd;"
d="M 130.4060,129.2470
130.3486,129.2356
130.2999,129.2031
130.2674,129.1544
130.2560,129.0970
130.2560,127.4470
130.2674,127.3896
130.2999,127.3409
130.3486,127.3084
130.4060,127.2970
130.7060,127.2970
130.7634,127.3084
130.8121,127.3409
130.8446,127.3896
130.8560,127.4470
130.8560,129.0970
130.8446,129.1544
130.8121,129.2031
130.7634,129.2356
130.7060,129.2470
Z" /> 
<path style="fill:#000000; fill-opacity:1.0000; stroke:none;fill-rule:evenodd;"
d="M 131.6760,129.2470
131.6186,129.2356
131.5699,129.2031
131.5374,129.1544
131.5260,129.0970
131.5260,127.4470
131.5374,127.3896
131.5699,127.3409
131.6186,127.3084
131.6760,127.2970
131.9760,127.2970
132.0334,127.3084
132.0821,127.3409
132.1146,127.3896
132.1260,127.4470
132.1260,129.0970
132.1146,129.1544
132.0821,129.2031
132.0334,129.2356
131.9760,129.2470
Z" /> 
<path style="fill:#000000; fill-opacity:1.0000; stroke:none;fill-rule:evenodd;"
d="M 132.9460,129.2470
132.8886,129.2356
132.8399,129.2031
132.8074,129.1544
132.7960,129.0970
132.7960,127.4470
132.8074,127.3896
132.8399,127.3409
132.8886,127.3084
132.9460,127.2970
133.2460,127.2970
133.3034,127.3084
133.3521,127.3409
133.3846,127.3896
133.3960,127.4470
133.3960,129.0970
133.3846,129.1544
133.3521,129.2031
133.3034,129.2356
133.2460,129.2470
Z" /> 
<path style="fill:#000000; fill-opacity:1.0000; stroke:none;fill-rule:evenodd;"
d="M 154.4440,69.6820
154.3483,69.6630
154.2672,69.6088
154.2130,69.5277
154.1940,69.4320
154.1940,68.9320
154.2130,68.8363
154.2672,68.7552
154.3483,68.7010
154.4440,68.6820
155.9440,68.6820
156.0397,68.7010
156.1208,68.7552
156.1750,68.8363
156.1940,68.9320
156.1940,69.4320
156.1750,69.5277
156.1208,69.6088
156.0397,69.6630
155.9440,69.6820
Z" /> 
<path style="fill:#000000; fill-opacity:1.0000; stroke:none;fill-rule:evenodd;"
d="M 150.1185,84.6500
150.0995,84.7457
150.0453,84.8268
149.9642,84.8810
149.8685,84.9000
149.3435,84.9000
149.2478,84.8810
149.1667,84.8268
149.1125,84.7457
149.0935,84.6500
149.0935,83.7500
149.1125,83.6543
149.1667,83.5732
149.2478,83.5190
149.3435,83.5000
149.8685,83.5000
149.9642,83.5190
150.0453,83.5732
150.0995,83.6543
150.1185,83.7500
Z" /> 
<path style="fill:#000000; fill-opacity:1.0000; stroke:none;fill-rule:evenodd;"
d="M 148.2935,84.6500
148.2745,84.7457
148.2203,84.8268
148.1392,84.8810
148.0435,84.9000
147.5185,84.9000
147.4228,84.8810
147.3417,84.8268
147.2875,84.7457
147.2685,84.6500
147.2685,83.7500
147.2875,83.6543
147.3417,83.5732
147.4228,83.5190
147.5185,83.5000
148.0435,83.5000
148.1392,83.5190
148.2203,83.5732
148.2745,83.6543
148.2935,83.7500
Z" /> 
<path style="fill:#000000; fill-opacity:1.0000; stroke:none;fill-rule:evenodd;"
d="M 138.2090,47.4925
138.1133,47.4735
138.0322,47.4193
137.9780,47.3382
137.9590,47.2425
137.9590,46.5675
137.9780,46.4718
138.0322,46.3907
138.1133,46.3365
138.2090,46.3175
139.1590,46.3175
139.2547,46.3365
139.3358,46.3907
139.3900,46.4718
139.4090,46.5675
139.4090,47.2425
139.3900,47.3382
139.3358,47.4193
139.2547,47.4735
139.1590,47.4925
Z" /> 
<path style="fill:#000000; fill-opacity:1.0000; stroke:none;fill-rule:evenodd;"
d="M 138.2090,45.4175
138.1133,45.3985
138.0322,45.3443
137.9780,45.2632
137.9590,45.1675
137.9590,44.4925
137.9780,44.3968
138.0322,44.3157
138.1133,44.2615
138.2090,44.2425
139.1590,44.2425
139.2547,44.2615
139.3358,44.3157
139.3900,44.3968
139.4090,44.4925
139.4090,45.1675
139.3900,45.2632
139.3358,45.3443
139.2547,45.3985
139.1590,45.4175
Z" /> 
<path style="fill:#000000; fill-opacity:1.0000; stroke:none;fill-rule:evenodd;"
d="M 139.3770,101.4815
139.2813,101.4625
139.2002,101.4083
139.1460,101.3272
139.1270,101.2315
139.1270,100.7065
139.1460,100.6108
139.2002,100.5297
139.2813,100.4755
139.3770,100.4565
140.2770,100.4565
140.3727,100.4755
140.4538,100.5297
140.5080,100.6108
140.5270,100.7065
140.5270,101.2315
140.5080,101.3272
140.4538,101.4083
140.3727,101.4625
140.2770,101.4815
Z" /> 
<path style="fill:#000000; fill-opacity:1.0000; stroke:none;fill-rule:evenodd;"
d="M 139.3770,99.6565
139.2813,99.6375
139.2002,99.5833
139.1460,99.5022
139.1270,99.4065
139.1270,98.8815
139.1460,98.7858
139.2002,98.7047
139.2813,98.6505
139.3770,98.6315
140.2770,98.6315
140.3727,98.6505
140.4538,98.7047
140.5080,98.7858
140.5270,98.8815
140.5270,99.4065
140.5080,99.5022
140.4538,99.5833
140.3727,99.6375
140.2770,99.6565
Z" /> 
<path style="fill:#000000; fill-opacity:1.0000; stroke:none;fill-rule:evenodd;"
d="M 150.3165,136.9630
150.3355,136.8673
150.3897,136.7862
150.4708,136.7320
150.5665,136.7130
151.0915,136.7130
151.1872,136.7320
151.2683,136.7862
151.3225,136.8673
151.3415,136.9630
151.3415,137.8630
151.3225,137.9587
151.2683,138.0398
151.1872,138.0940
151.0915,138.1130
150.5665,138.1130
150.4708,138.0940
150.3897,138.0398
150.3355,137.9587
150.3165,137.8630
Z" /> 
<path style="fill:#000000; fill-opacity:1.0000; stroke:none;fill-rule:evenodd;"
d="M 152.1415,136.9630
152.1605,136.8673
152.2147,136.7862
152.2958,136.7320
152.3915,136.7130
152.9165,136.7130
153.0122,136.7320
153.0933,136.7862
153.1475,136.8673
153.1665,136.9630
153.1665,137.8630
153.1475,137.9587
153.0933,138.0398
153.0122,138.0940
152.9165,138.1130
152.3915,138.1130
152.2958,138.0940
152.2147,138.0398
152.1605,137.9587
152.1415,137.8630
Z" /> 
<path style="fill:#000000; fill-opacity:1.0000; stroke:none;fill-rule:evenodd;"
d="M 136.9290,82.4660
136.9864,82.4774
137.0351,82.5099
137.0676,82.5586
137.0790,82.6160
137.0790,84.2660
137.0676,84.3234
137.0351,84.3721
136.9864,84.4046
136.9290,84.4160
136.6290,84.4160
136.5716,84.4046
136.5229,84.3721
136.4904,84.3234
136.4790,84.2660
136.4790,82.6160
136.4904,82.5586
136.5229,82.5099
136.5716,82.4774
136.6290,82.4660
Z" /> 
<path style="fill:#000000; fill-opacity:1.0000; stroke:none;fill-rule:evenodd;"
d="M 138.1990,82.4660
138.2564,82.4774
138.3051,82.5099
138.3376,82.5586
138.3490,82.6160
138.3490,84.2660
138.3376,84.3234
138.3051,84.3721
138.2564,84.4046
138.1990,84.4160
137.8990,84.4160
137.8416,84.4046
137.7929,84.3721
137.7604,84.3234
137.7490,84.2660
137.7490,82.6160
137.7604,82.5586
137.7929,82.5099
137.8416,82.4774
137.8990,82.4660
Z" /> 
<path style="fill:#000000; fill-opacity:1.0000; stroke:none;fill-rule:evenodd;"
d="M 139.4690,82.4660
139.5264,82.4774
139.5751,82.5099
139.6076,82.5586
139.6190,82.6160
139.6190,84.2660
139.6076,84.3234
139.5751,84.3721
139.5264,84.4046
139.4690,84.4160
139.1690,84.4160
139.1116,84.4046
139.0629,84.3721
139.0304,84.3234
139.0190,84.2660
139.0190,82.6160
139.0304,82.5586
139.0629,82.5099
139.1116,82.4774
139.1690,82.4660
Z" /> 
<path style="fill:#000000; fill-opacity:1.0000; stroke:none;fill-rule:evenodd;"
d="M 140.7390,82.4660
140.7964,82.4774
140.8451,82.5099
140.8776,82.5586
140.8890,82.6160
140.8890,84.2660
140.8776,84.3234
140.8451,84.3721
140.7964,84.4046
140.7390,84.4160
140.4390,84.4160
140.3816,84.4046
140.3329,84.3721
140.3004,84.3234
140.2890,84.2660
140.2890,82.6160
140.3004,82.5586
140.3329,82.5099
140.3816,82.4774
140.4390,82.4660
Z" /> 
<path style="fill:#000000; fill-opacity:1.0000; stroke:none;fill-rule:evenodd;"
d="M 142.0090,82.4660
142.0664,82.4774
142.1151,82.5099
142.1476,82.5586
142.1590,82.6160
142.1590,84.2660
142.1476,84.3234
142.1151,84.3721
142.0664,84.4046
142.0090,84.4160
141.7090,84.4160
141.6516,84.4046
141.6029,84.3721
141.5704,84.3234
141.5590,84.2660
141.5590,82.6160
141.5704,82.5586
141.6029,82.5099
141.6516,82.4774
141.7090,82.4660
Z" /> 
<path style="fill:#000000; fill-opacity:1.0000; stroke:none;fill-rule:evenodd;"
d="M 143.2790,82.4660
143.3364,82.4774
143.3851,82.5099
143.4176,82.5586
143.4290,82.6160
143.4290,84.2660
143.4176,84.3234
143.3851,84.3721
143.3364,84.4046
143.2790,84.4160
142.9790,84.4160
142.9216,84.4046
142.8729,84.3721
142.8404,84.3234
142.8290,84.2660
142.8290,82.6160
142.8404,82.5586
142.8729,82.5099
142.9216,82.4774
142.9790,82.4660
Z" /> 
<path style="fill:#000000; fill-opacity:1.0000; stroke:none;fill-rule:evenodd;"
d="M 144.5490,82.4660
144.6064,82.4774
144.6551,82.5099
144.6876,82.5586
144.6990,82.6160
144.6990,84.2660
144.6876,84.3234
144.6551,84.3721
144.6064,84.4046
144.5490,84.4160
144.2490,84.4160
144.1916,84.4046
144.1429,84.3721
144.1104,84.3234
144.0990,84.2660
144.0990,82.6160
144.1104,82.5586
144.1429,82.5099
144.1916,82.4774
144.2490,82.4660
Z" /> 
<path style="fill:#000000; fill-opacity:1.0000; stroke:none;fill-rule:evenodd;"
d="M 145.8190,82.4660
145.8764,82.4774
145.9251,82.5099
145.9576,82.5586
145.9690,82.6160
145.9690,84.2660
145.9576,84.3234
145.9251,84.3721
145.8764,84.4046
145.8190,84.4160
145.5190,84.4160
145.4616,84.4046
145.4129,84.3721
145.3804,84.3234
145.3690,84.2660
145.3690,82.6160
145.3804,82.5586
145.4129,82.5099
145.4616,82.4774
145.5190,82.4660
Z" /> 
<path style="fill:#000000; fill-opacity:1.0000; stroke:none;fill-rule:evenodd;"
d="M 145.8190,87.4160
145.8764,87.4274
145.9251,87.4599
145.9576,87.5086
145.9690,87.5660
145.9690,89.2160
145.9576,89.2734
145.9251,89.3221
145.8764,89.3546
145.8190,89.3660
145.5190,89.3660
145.4616,89.3546
145.4129,89.3221
145.3804,89.2734
145.3690,89.2160
145.3690,87.5660
145.3804,87.5086
145.4129,87.4599
145.4616,87.4274
145.5190,87.4160
Z" /> 
<path style="fill:#000000; fill-opacity:1.0000; stroke:none;fill-rule:evenodd;"
d="M 144.5490,87.4160
144.6064,87.4274
144.6551,87.4599
144.6876,87.5086
144.6990,87.5660
144.6990,89.2160
144.6876,89.2734
144.6551,89.3221
144.6064,89.3546
144.5490,89.3660
144.2490,89.3660
144.1916,89.3546
144.1429,89.3221
144.1104,89.2734
144.0990,89.2160
144.0990,87.5660
144.1104,87.5086
144.1429,87.4599
144.1916,87.4274
144.2490,87.4160
Z" /> 
<path style="fill:#000000; fill-opacity:1.0000; stroke:none;fill-rule:evenodd;"
d="M 143.2790,87.4160
143.3364,87.4274
143.3851,87.4599
143.4176,87.5086
143.4290,87.5660
143.4290,89.2160
143.4176,89.2734
143.3851,89.3221
143.3364,89.3546
143.2790,89.3660
142.9790,89.3660
142.9216,89.3546
142.8729,89.3221
142.8404,89.2734
142.8290,89.2160
142.8290,87.5660
142.8404,87.5086
142.8729,87.4599
142.9216,87.4274
142.9790,87.4160
Z" /> 
<path style="fill:#000000; fill-opacity:1.0000; stroke:none;fill-rule:evenodd;"
d="M 142.0090,87.4160
142.0664,87.4274
142.1151,87.4599
142.1476,87.5086
142.1590,87.5660
142.1590,89.2160
142.1476,89.2734
142.1151,89.3221
142.0664,89.3546
142.0090,89.3660
141.7090,89.3660
141.6516,89.3546
141.6029,89.3221
141.5704,89.2734
141.5590,89.2160
141.5590,87.5660
141.5704,87.5086
141.6029,87.4599
141.6516,87.4274
141.7090,87.4160
Z" /> 
<path style="fill:#000000; fill-opacity:1.0000; stroke:none;fill-rule:evenodd;"
d="M 140.7390,87.4160
140.7964,87.4274
140.8451,87.4599
140.8776,87.5086
140.8890,87.5660
140.8890,89.2160
140.8776,89.2734
140.8451,89.3221
140.7964,89.3546
140.7390,89.3660
140.4390,89.3660
140.3816,89.3546
140.3329,89.3221
140.3004,89.2734
140.2890,89.2160
140.2890,87.5660
140.3004,87.5086
140.3329,87.4599
140.3816,87.4274
140.4390,87.4160
Z" /> 
<path style="fill:#000000; fill-opacity:1.0000; stroke:none;fill-rule:evenodd;"
d="M 139.4690,87.4160
139.5264,87.4274
139.5751,87.4599
139.6076,87.5086
139.6190,87.5660
139.6190,89.2160
139.6076,89.2734
139.5751,89.3221
139.5264,89.3546
139.4690,89.3660
139.1690,89.3660
139.1116,89.3546
139.0629,89.3221
139.0304,89.2734
139.0190,89.2160
139.0190,87.5660
139.0304,87.5086
139.0629,87.4599
139.1116,87.4274
139.1690,87.4160
Z" /> 
<path style="fill:#000000; fill-opacity:1.0000; stroke:none;fill-rule:evenodd;"
d="M 138.1990,87.4160
138.2564,87.4274
138.3051,87.4599
138.3376,87.5086
138.3490,87.5660
138.3490,89.2160
138.3376,89.2734
138.3051,89.3221
138.2564,89.3546
138.1990,89.3660
137.8990,89.3660
137.8416,89.3546
137.7929,89.3221
137.7604,89.2734
137.7490,89.2160
137.7490,87.5660
137.7604,87.5086
137.7929,87.4599
137.8416,87.4274
137.8990,87.4160
Z" /> 
<path style="fill:#000000; fill-opacity:1.0000; stroke:none;fill-rule:evenodd;"
d="M 136.9290,87.4160
136.9864,87.4274
137.0351,87.4599
137.0676,87.5086
137.0790,87.5660
137.0790,89.2160
137.0676,89.2734
137.0351,89.3221
136.9864,89.3546
136.9290,89.3660
136.6290,89.3660
136.5716,89.3546
136.5229,89.3221
136.4904,89.2734
136.4790,89.2160
136.4790,87.5660
136.4904,87.5086
136.5229,87.4599
136.5716,87.4274
136.6290,87.4160
Z" /> 
<path style="fill:#000000; fill-opacity:1.0000; stroke:none;fill-rule:evenodd;"
d="M 139.6420,90.3345
139.7377,90.3535
139.8188,90.4077
139.8730,90.4888
139.8920,90.5845
139.8920,91.1095
139.8730,91.2052
139.8188,91.2863
139.7377,91.3405
139.6420,91.3595
138.7420,91.3595
138.6463,91.3405
138.5652,91.2863
138.5110,91.2052
138.4920,91.1095
138.4920,90.5845
138.5110,90.4888
138.5652,90.4077
138.6463,90.3535
138.7420,90.3345
Z" /> 
<path style="fill:#000000; fill-opacity:1.0000; stroke:none;fill-rule:evenodd;"
d="M 139.6420,92.1595
139.7377,92.1785
139.8188,92.2327
139.8730,92.3138
139.8920,92.4095
139.8920,92.9345
139.8730,93.0302
139.8188,93.1113
139.7377,93.1655
139.6420,93.1845
138.7420,93.1845
138.6463,93.1655
138.5652,93.1113
138.5110,93.0302
138.4920,92.9345
138.4920,92.4095
138.5110,92.3138
138.5652,92.2327
138.6463,92.1785
138.7420,92.1595
Z" /> 
<path style="fill:#000000; fill-opacity:1.0000; stroke:none;fill-rule:evenodd;"
d="M 142.5620,50.2850
142.5449,50.3711
142.4961,50.4441
142.4231,50.4929
142.3370,50.5100
141.8870,50.5100
141.8009,50.4929
141.7279,50.4441
141.6791,50.3711
141.6620,50.2850
141.6620,49.5350
141.6791,49.4489
141.7279,49.3759
141.8009,49.3271
141.8870,49.3100
142.3370,49.3100
142.4231,49.3271
142.4961,49.3759
142.5449,49.4489
142.5620,49.5350
Z" /> 
<path style="fill:#000000; fill-opacity:1.0000; stroke:none;fill-rule:evenodd;"
d="M 139.2620,50.2850
139.2449,50.3711
139.1961,50.4441
139.1231,50.4929
139.0370,50.5100
138.5870,50.5100
138.5009,50.4929
138.4279,50.4441
138.3791,50.3711
138.3620,50.2850
138.3620,49.5350
138.3791,49.4489
138.4279,49.3759
138.5009,49.3271
138.5870,49.3100
139.0370,49.3100
139.1231,49.3271
139.1961,49.3759
139.2449,49.4489
139.2620,49.5350
Z" /> 
<path style="fill:#000000; fill-opacity:1.0000; stroke:none;fill-rule:evenodd;"
d="M 154.4440,62.6020
154.3483,62.5830
154.2672,62.5288
154.2130,62.4477
154.1940,62.3520
154.1940,61.8520
154.2130,61.7563
154.2672,61.6752
154.3483,61.6210
154.4440,61.6020
155.9440,61.6020
156.0397,61.6210
156.1208,61.6752
156.1750,61.7563
156.1940,61.8520
156.1940,62.3520
156.1750,62.4477
156.1208,62.5288
156.0397,62.5830
155.9440,62.6020
Z" /> 
<path style="fill:#000000; fill-opacity:1.0000; stroke:none;fill-rule:evenodd;"
d="M 152.8090,125.7980
152.7900,125.8937
152.7358,125.9748
152.6547,126.0290
152.5590,126.0480
152.0340,126.0480
151.9383,126.0290
151.8572,125.9748
151.8030,125.8937
151.7840,125.7980
151.7840,124.8980
151.8030,124.8023
151.8572,124.7212
151.9383,124.6670
152.0340,124.6480
152.5590,124.6480
152.6547,124.6670
152.7358,124.7212
152.7900,124.8023
152.8090,124.8980
Z" /> 
<path style="fill:#000000; fill-opacity:1.0000; stroke:none;fill-rule:evenodd;"
d="M 150.9840,125.7980
150.9650,125.8937
150.9108,125.9748
150.8297,126.0290
150.7340,126.0480
150.2090,126.0480
150.1133,126.0290
150.0322,125.9748
149.9780,125.8937
149.9590,125.7980
149.9590,124.8980
149.9780,124.8023
150.0322,124.7212
150.1133,124.6670
150.2090,124.6480
150.7340,124.6480
150.8297,124.6670
150.9108,124.7212
150.9650,124.8023
150.9840,124.8980
Z" /> 
<path style="fill:#000000; fill-opacity:1.0000; stroke:none;fill-rule:evenodd;"
d="M 144.3930,90.3970
144.4791,90.4141
144.5521,90.4629
144.6009,90.5359
144.6180,90.6220
144.6180,91.0720
144.6009,91.1581
144.5521,91.2311
144.4791,91.2799
144.3930,91.2970
143.6430,91.2970
143.5569,91.2799
143.4839,91.2311
143.4351,91.1581
143.4180,91.0720
143.4180,90.6220
143.4351,90.5359
143.4839,90.4629
143.5569,90.4141
143.6430,90.3970
Z" /> 
<path style="fill:#000000; fill-opacity:1.0000; stroke:none;fill-rule:evenodd;"
d="M 144.3930,93.6970
144.4791,93.7141
144.5521,93.7629
144.6009,93.8359
144.6180,93.9220
144.6180,94.3720
144.6009,94.4581
144.5521,94.5311
144.4791,94.5799
144.3930,94.5970
143.6430,94.5970
143.5569,94.5799
143.4839,94.5311
143.4351,94.4581
143.4180,94.3720
143.4180,93.9220
143.4351,93.8359
143.4839,93.7629
143.5569,93.7141
143.6430,93.6970
Z" /> 
<path style="fill:#000000; fill-opacity:1.0000; stroke:none;fill-rule:evenodd;"
d="M 154.4440,81.4820
154.3483,81.4630
154.2672,81.4088
154.2130,81.3277
154.1940,81.2320
154.1940,80.7320
154.2130,80.6363
154.2672,80.5552
154.3483,80.5010
154.4440,80.4820
155.9440,80.4820
156.0397,80.5010
156.1208,80.5552
156.1750,80.6363
156.1940,80.7320
156.1940,81.2320
156.1750,81.3277
156.1208,81.4088
156.0397,81.4630
155.9440,81.4820
Z" /> 
<path style="fill:#000000; fill-opacity:1.0000; stroke:none;fill-rule:evenodd;"
d="M 137.4740,112.9380
137.4930,112.8423
137.5472,112.7612
137.6283,112.7070
137.7240,112.6880
140.7240,112.6880
140.8197,112.7070
140.9008,112.7612
140.9550,112.8423
140.9740,112.9380
140.9740,114.0380
140.9550,114.1337
140.9008,114.2148
140.8197,114.2690
140.7240,114.2880
137.7240,114.2880
137.6283,114.2690
137.5472,114.2148
137.4930,114.1337
137.4740,114.0380
Z" /> 
<path style="fill:#000000; fill-opacity:1.0000; stroke:none;fill-rule:evenodd;"
d="M 142.8740,112.9380
142.8930,112.8423
142.9472,112.7612
143.0283,112.7070
143.1240,112.6880
146.1240,112.6880
146.2197,112.7070
146.3008,112.7612
146.3550,112.8423
146.3740,112.9380
146.3740,114.0380
146.3550,114.1337
146.3008,114.2148
146.2197,114.2690
146.1240,114.2880
143.1240,114.2880
143.0283,114.2690
142.9472,114.2148
142.8930,114.1337
142.8740,114.0380
Z" /> 
<path style="fill:#000000; fill-opacity:1.0000; stroke:none;fill-rule:evenodd;"
d="M 152.8090,123.8930
152.7900,123.9887
152.7358,124.0698
152.6547,124.1240
152.5590,124.1430
152.0340,124.1430
151.9383,124.1240
151.8572,124.0698
151.8030,123.9887
151.7840,123.8930
151.7840,122.9930
151.8030,122.8973
151.8572,122.8162
151.9383,122.7620
152.0340,122.7430
152.5590,122.7430
152.6547,122.7620
152.7358,122.8162
152.7900,122.8973
152.8090,122.9930
Z" /> 
<path style="fill:#000000; fill-opacity:1.0000; stroke:none;fill-rule:evenodd;"
d="M 150.9840,123.8930
150.9650,123.9887
150.9108,124.0698
150.8297,124.1240
150.7340,124.1430
150.2090,124.1430
150.1133,124.1240
150.0322,124.0698
149.9780,123.9887
149.9590,123.8930
149.9590,122.9930
149.9780,122.8973
150.0322,122.8162
150.1133,122.7620
150.2090,122.7430
150.7340,122.7430
150.8297,122.7620
150.9108,122.8162
150.9650,122.8973
150.9840,122.9930
Z" /> 
<path style="fill:#000000; fill-opacity:1.0000; stroke:none;fill-rule:evenodd;"
d="M 137.6100,90.3345
137.7057,90.3535
137.7868,90.4077
137.8410,90.4888
137.8600,90.5845
137.8600,91.1095
137.8410,91.2052
137.7868,91.2863
137.7057,91.3405
137.6100,91.3595
136.7100,91.3595
136.6143,91.3405
136.5332,91.2863
136.4790,91.2052
136.4600,91.1095
136.4600,90.5845
136.4790,90.4888
136.5332,90.4077
136.6143,90.3535
136.7100,90.3345
Z" /> 
<path style="fill:#000000; fill-opacity:1.0000; stroke:none;fill-rule:evenodd;"
d="M 137.6100,92.1595
137.7057,92.1785
137.7868,92.2327
137.8410,92.3138
137.8600,92.4095
137.8600,92.9345
137.8410,93.0302
137.7868,93.1113
137.7057,93.1655
137.6100,93.1845
136.7100,93.1845
136.6143,93.1655
136.5332,93.1113
136.4790,93.0302
136.4600,92.9345
136.4600,92.4095
136.4790,92.3138
136.5332,92.2327
136.6143,92.1785
136.7100,92.1595
Z" /> 
<path style="fill:#000000; fill-opacity:1.0000; stroke:none;fill-rule:evenodd;"
d="M 137.5640,102.3620
137.6214,102.3734
137.6701,102.4059
137.7026,102.4546
137.7140,102.5120
137.7140,104.1620
137.7026,104.2194
137.6701,104.2681
137.6214,104.3006
137.5640,104.3120
137.2640,104.3120
137.2066,104.3006
137.1579,104.2681
137.1254,104.2194
137.1140,104.1620
137.1140,102.5120
137.1254,102.4546
137.1579,102.4059
137.2066,102.3734
137.2640,102.3620
Z" /> 
<path style="fill:#000000; fill-opacity:1.0000; stroke:none;fill-rule:evenodd;"
d="M 138.8340,102.3620
138.8914,102.3734
138.9401,102.4059
138.9726,102.4546
138.9840,102.5120
138.9840,104.1620
138.9726,104.2194
138.9401,104.2681
138.8914,104.3006
138.8340,104.3120
138.5340,104.3120
138.4766,104.3006
138.4279,104.2681
138.3954,104.2194
138.3840,104.1620
138.3840,102.5120
138.3954,102.4546
138.4279,102.4059
138.4766,102.3734
138.5340,102.3620
Z" /> 
<path style="fill:#000000; fill-opacity:1.0000; stroke:none;fill-rule:evenodd;"
d="M 140.1040,102.3620
140.1614,102.3734
140.2101,102.4059
140.2426,102.4546
140.2540,102.5120
140.2540,104.1620
140.2426,104.2194
140.2101,104.2681
140.1614,104.3006
140.1040,104.3120
139.8040,104.3120
139.7466,104.3006
139.6979,104.2681
139.6654,104.2194
139.6540,104.1620
139.6540,102.5120
139.6654,102.4546
139.6979,102.4059
139.7466,102.3734
139.8040,102.3620
Z" /> 
<path style="fill:#000000; fill-opacity:1.0000; stroke:none;fill-rule:evenodd;"
d="M 141.3740,102.3620
141.4314,102.3734
141.4801,102.4059
141.5126,102.4546
141.5240,102.5120
141.5240,104.1620
141.5126,104.2194
141.4801,104.2681
141.4314,104.3006
141.3740,104.3120
141.0740,104.3120
141.0166,104.3006
140.9679,104.2681
140.9354,104.2194
140.9240,104.1620
140.9240,102.5120
140.9354,102.4546
140.9679,102.4059
141.0166,102.3734
141.0740,102.3620
Z" /> 
<path style="fill:#000000; fill-opacity:1.0000; stroke:none;fill-rule:evenodd;"
d="M 142.6440,102.3620
142.7014,102.3734
142.7501,102.4059
142.7826,102.4546
142.7940,102.5120
142.7940,104.1620
142.7826,104.2194
142.7501,104.2681
142.7014,104.3006
142.6440,104.3120
142.3440,104.3120
142.2866,104.3006
142.2379,104.2681
142.2054,104.2194
142.1940,104.1620
142.1940,102.5120
142.2054,102.4546
142.2379,102.4059
142.2866,102.3734
142.3440,102.3620
Z" /> 
<path style="fill:#000000; fill-opacity:1.0000; stroke:none;fill-rule:evenodd;"
d="M 143.9140,102.3620
143.9714,102.3734
144.0201,102.4059
144.0526,102.4546
144.0640,102.5120
144.0640,104.1620
144.0526,104.2194
144.0201,104.2681
143.9714,104.3006
143.9140,104.3120
143.6140,104.3120
143.5566,104.3006
143.5079,104.2681
143.4754,104.2194
143.4640,104.1620
143.4640,102.5120
143.4754,102.4546
143.5079,102.4059
143.5566,102.3734
143.6140,102.3620
Z" /> 
<path style="fill:#000000; fill-opacity:1.0000; stroke:none;fill-rule:evenodd;"
d="M 145.1840,102.3620
145.2414,102.3734
145.2901,102.4059
145.3226,102.4546
145.3340,102.5120
145.3340,104.1620
145.3226,104.2194
145.2901,104.2681
145.2414,104.3006
145.1840,104.3120
144.8840,104.3120
144.8266,104.3006
144.7779,104.2681
144.7454,104.2194
144.7340,104.1620
144.7340,102.5120
144.7454,102.4546
144.7779,102.4059
144.8266,102.3734
144.8840,102.3620
Z" /> 
<path style="fill:#000000; fill-opacity:1.0000; stroke:none;fill-rule:evenodd;"
d="M 145.1840,107.3120
145.2414,107.3234
145.2901,107.3559
145.3226,107.4046
145.3340,107.4620
145.3340,109.1120
145.3226,109.1694
145.2901,109.2181
145.2414,109.2506
145.1840,109.2620
144.8840,109.2620
144.8266,109.2506
144.7779,109.2181
144.7454,109.1694
144.7340,109.1120
144.7340,107.4620
144.7454,107.4046
144.7779,107.3559
144.8266,107.3234
144.8840,107.3120
Z" /> 
<path style="fill:#000000; fill-opacity:1.0000; stroke:none;fill-rule:evenodd;"
d="M 143.9140,107.3120
143.9714,107.3234
144.0201,107.3559
144.0526,107.4046
144.0640,107.4620
144.0640,109.1120
144.0526,109.1694
144.0201,109.2181
143.9714,109.2506
143.9140,109.2620
143.6140,109.2620
143.5566,109.2506
143.5079,109.2181
143.4754,109.1694
143.4640,109.1120
143.4640,107.4620
143.4754,107.4046
143.5079,107.3559
143.5566,107.3234
143.6140,107.3120
Z" /> 
<path style="fill:#000000; fill-opacity:1.0000; stroke:none;fill-rule:evenodd;"
d="M 142.6440,107.3120
142.7014,107.3234
142.7501,107.3559
142.7826,107.4046
142.7940,107.4620
142.7940,109.1120
142.7826,109.1694
142.7501,109.2181
142.7014,109.2506
142.6440,109.2620
142.3440,109.2620
142.2866,109.2506
142.2379,109.2181
142.2054,109.1694
142.1940,109.1120
142.1940,107.4620
142.2054,107.4046
142.2379,107.3559
142.2866,107.3234
142.3440,107.3120
Z" /> 
<path style="fill:#000000; fill-opacity:1.0000; stroke:none;fill-rule:evenodd;"
d="M 141.3740,107.3120
141.4314,107.3234
141.4801,107.3559
141.5126,107.4046
141.5240,107.4620
141.5240,109.1120
141.5126,109.1694
141.4801,109.2181
141.4314,109.2506
141.3740,109.2620
141.0740,109.2620
141.0166,109.2506
140.9679,109.2181
140.9354,109.1694
140.9240,109.1120
140.9240,107.4620
140.9354,107.4046
140.9679,107.3559
141.0166,107.3234
141.0740,107.3120
Z" /> 
<path style="fill:#000000; fill-opacity:1.0000; stroke:none;fill-rule:evenodd;"
d="M 140.1040,107.3120
140.1614,107.3234
140.2101,107.3559
140.2426,107.4046
140.2540,107.4620
140.2540,109.1120
140.2426,109.1694
140.2101,109.2181
140.1614,109.2506
140.1040,109.2620
139.8040,109.2620
139.7466,109.2506
139.6979,109.2181
139.6654,109.1694
139.6540,109.1120
139.6540,107.4620
139.6654,107.4046
139.6979,107.3559
139.7466,107.3234
139.8040,107.3120
Z" /> 
<path style="fill:#000000; fill-opacity:1.0000; stroke:none;fill-rule:evenodd;"
d="M 138.8340,107.3120
138.8914,107.3234
138.9401,107.3559
138.9726,107.4046
138.9840,107.4620
138.9840,109.1120
138.9726,109.1694
138.9401,109.2181
138.8914,109.2506
138.8340,109.2620
138.5340,109.2620
138.4766,109.2506
138.4279,109.2181
138.3954,109.1694
138.3840,109.1120
138.3840,107.4620
138.3954,107.4046
138.4279,107.3559
138.4766,107.3234
138.5340,107.3120
Z" /> 
<path style="fill:#000000; fill-opacity:1.0000; stroke:none;fill-rule:evenodd;"
d="M 137.5640,107.3120
137.6214,107.3234
137.6701,107.3559
137.7026,107.4046
137.7140,107.4620
137.7140,109.1120
137.7026,109.1694
137.6701,109.2181
137.6214,109.2506
137.5640,109.2620
137.2640,109.2620
137.2066,109.2506
137.1579,109.2181
137.1254,109.1694
137.1140,109.1120
137.1140,107.4620
137.1254,107.4046
137.1579,107.3559
137.2066,107.3234
137.2640,107.3120
Z" /> 
<path style="fill:#000000; fill-opacity:1.0000; stroke:none;fill-rule:evenodd;"
d="M 135.6030,127.2790
135.6987,127.2980
135.7798,127.3522
135.8340,127.4333
135.8530,127.5290
135.8530,128.2040
135.8340,128.2997
135.7798,128.3808
135.6987,128.4350
135.6030,128.4540
134.6530,128.4540
134.5573,128.4350
134.4762,128.3808
134.4220,128.2997
134.4030,128.2040
134.4030,127.5290
134.4220,127.4333
134.4762,127.3522
134.5573,127.2980
134.6530,127.2790
Z" /> 
<path style="fill:#000000; fill-opacity:1.0000; stroke:none;fill-rule:evenodd;"
d="M 135.6030,129.3540
135.6987,129.3730
135.7798,129.4272
135.8340,129.5083
135.8530,129.6040
135.8530,130.2790
135.8340,130.3747
135.7798,130.4558
135.6987,130.5100
135.6030,130.5290
134.6530,130.5290
134.5573,130.5100
134.4762,130.4558
134.4220,130.3747
134.4030,130.2790
134.4030,129.6040
134.4220,129.5083
134.4762,129.4272
134.5573,129.3730
134.6530,129.3540
Z" /> 
<path style="fill:#000000; fill-opacity:1.0000; stroke:none;fill-rule:evenodd;"
d="M 139.1340,40.7145
139.2297,40.7335
139.3108,40.7877
139.3650,40.8688
139.3840,40.9645
139.3840,41.4895
139.3650,41.5852
139.3108,41.6663
139.2297,41.7205
139.1340,41.7395
138.2340,41.7395
138.1383,41.7205
138.0572,41.6663
138.0030,41.5852
137.9840,41.4895
137.9840,40.9645
138.0030,40.8688
138.0572,40.7877
138.1383,40.7335
138.2340,40.7145
Z" /> 
<path style="fill:#000000; fill-opacity:1.0000; stroke:none;fill-rule:evenodd;"
d="M 139.1340,42.5395
139.2297,42.5585
139.3108,42.6127
139.3650,42.6938
139.3840,42.7895
139.3840,43.3145
139.3650,43.4102
139.3108,43.4913
139.2297,43.5455
139.1340,43.5645
138.2340,43.5645
138.1383,43.5455
138.0572,43.4913
138.0030,43.4102
137.9840,43.3145
137.9840,42.7895
138.0030,42.6938
138.0572,42.6127
138.1383,42.5585
138.2340,42.5395
Z" /> 
<path style="fill:#000000; fill-opacity:1.0000; stroke:none;fill-rule:evenodd;"
d="M 133.0915,124.8980
133.1105,124.8023
133.1647,124.7212
133.2458,124.6670
133.3415,124.6480
133.8665,124.6480
133.9622,124.6670
134.0433,124.7212
134.0975,124.8023
134.1165,124.8980
134.1165,125.7980
134.0975,125.8937
134.0433,125.9748
133.9622,126.0290
133.8665,126.0480
133.3415,126.0480
133.2458,126.0290
133.1647,125.9748
133.1105,125.8937
133.0915,125.7980
Z" /> 
<path style="fill:#000000; fill-opacity:1.0000; stroke:none;fill-rule:evenodd;"
d="M 134.9165,124.8980
134.9355,124.8023
134.9897,124.7212
135.0708,124.6670
135.1665,124.6480
135.6915,124.6480
135.7872,124.6670
135.8683,124.7212
135.9225,124.8023
135.9415,124.8980
135.9415,125.7980
135.9225,125.8937
135.8683,125.9748
135.7872,126.0290
135.6915,126.0480
135.1665,126.0480
135.0708,126.0290
134.9897,125.9748
134.9355,125.8937
134.9165,125.7980
Z" /> 
<path style="fill:#000000; fill-opacity:1.0000; stroke:none;fill-rule:evenodd;"
d="M 154.4440,74.4020
154.3483,74.3830
154.2672,74.3288
154.2130,74.2477
154.1940,74.1520
154.1940,73.6520
154.2130,73.5563
154.2672,73.4752
154.3483,73.4210
154.4440,73.4020
155.9440,73.4020
156.0397,73.4210
156.1208,73.4752
156.1750,73.5563
156.1940,73.6520
156.1940,74.1520
156.1750,74.2477
156.1208,74.3288
156.0397,74.3830
155.9440,74.4020
Z" /> 
<path style="fill:#000000; fill-opacity:1.0000; stroke:none;fill-rule:evenodd;"
d="M 150.8990,127.2320
150.9564,127.2434
151.0051,127.2759
151.0376,127.3246
151.0490,127.3820
151.0490,129.0320
151.0376,129.0894
151.0051,129.1381
150.9564,129.1706
150.8990,129.1820
150.5990,129.1820
150.5416,129.1706
150.4929,129.1381
150.4604,129.0894
150.4490,129.0320
150.4490,127.3820
150.4604,127.3246
150.4929,127.2759
150.5416,127.2434
150.5990,127.2320
Z" /> 
<path style="fill:#000000; fill-opacity:1.0000; stroke:none;fill-rule:evenodd;"
d="M 152.1690,127.2320
152.2264,127.2434
152.2751,127.2759
152.3076,127.3246
152.3190,127.3820
152.3190,129.0320
152.3076,129.0894
152.2751,129.1381
152.2264,129.1706
152.1690,129.1820
151.8690,129.1820
151.8116,129.1706
151.7629,129.1381
151.7304,129.0894
151.7190,129.0320
151.7190,127.3820
151.7304,127.3246
151.7629,127.2759
151.8116,127.2434
151.8690,127.2320
Z" /> 
<path style="fill:#000000; fill-opacity:1.0000; stroke:none;fill-rule:evenodd;"
d="M 153.4390,127.2320
153.4964,127.2434
153.5451,127.2759
153.5776,127.3246
153.5890,127.3820
153.5890,129.0320
153.5776,129.0894
153.5451,129.1381
153.4964,129.1706
153.4390,129.1820
153.1390,129.1820
153.0816,129.1706
153.0329,129.1381
153.0004,129.0894
152.9890,129.0320
152.9890,127.3820
153.0004,127.3246
153.0329,127.2759
153.0816,127.2434
153.1390,127.2320
Z" /> 
<path style="fill:#000000; fill-opacity:1.0000; stroke:none;fill-rule:evenodd;"
d="M 154.7090,127.2320
154.7664,127.2434
154.8151,127.2759
154.8476,127.3246
154.8590,127.3820
154.8590,129.0320
154.8476,129.0894
154.8151,129.1381
154.7664,129.1706
154.7090,129.1820
154.4090,129.1820
154.3516,129.1706
154.3029,129.1381
154.2704,129.0894
154.2590,129.0320
154.2590,127.3820
154.2704,127.3246
154.3029,127.2759
154.3516,127.2434
154.4090,127.2320
Z" /> 
<path style="fill:#000000; fill-opacity:1.0000; stroke:none;fill-rule:evenodd;"
d="M 154.7090,132.1820
154.7664,132.1934
154.8151,132.2259
154.8476,132.2746
154.8590,132.3320
154.8590,133.9820
154.8476,134.0394
154.8151,134.0881
154.7664,134.1206
154.7090,134.1320
154.4090,134.1320
154.3516,134.1206
154.3029,134.0881
154.2704,134.0394
154.2590,133.9820
154.2590,132.3320
154.2704,132.2746
154.3029,132.2259
154.3516,132.1934
154.4090,132.1820
Z" /> 
<path style="fill:#000000; fill-opacity:1.0000; stroke:none;fill-rule:evenodd;"
d="M 153.4390,132.1820
153.4964,132.1934
153.5451,132.2259
153.5776,132.2746
153.5890,132.3320
153.5890,133.9820
153.5776,134.0394
153.5451,134.0881
153.4964,134.1206
153.4390,134.1320
153.1390,134.1320
153.0816,134.1206
153.0329,134.0881
153.0004,134.0394
152.9890,133.9820
152.9890,132.3320
153.0004,132.2746
153.0329,132.2259
153.0816,132.1934
153.1390,132.1820
Z" /> 
<path style="fill:#000000; fill-opacity:1.0000; stroke:none;fill-rule:evenodd;"
d="M 152.1690,132.1820
152.2264,132.1934
152.2751,132.2259
152.3076,132.2746
152.3190,132.3320
152.3190,133.9820
152.3076,134.0394
152.2751,134.0881
152.2264,134.1206
152.1690,134.1320
151.8690,134.1320
151.8116,134.1206
151.7629,134.0881
151.7304,134.0394
151.7190,133.9820
151.7190,132.3320
151.7304,132.2746
151.7629,132.2259
151.8116,132.1934
151.8690,132.1820
Z" /> 
<path style="fill:#000000; fill-opacity:1.0000; stroke:none;fill-rule:evenodd;"
d="M 150.8990,132.1820
150.9564,132.1934
151.0051,132.2259
151.0376,132.2746
151.0490,132.3320
151.0490,133.9820
151.0376,134.0394
151.0051,134.0881
150.9564,134.1206
150.8990,134.1320
150.5990,134.1320
150.5416,134.1206
150.4929,134.0881
150.4604,134.0394
150.4490,133.9820
150.4490,132.3320
150.4604,132.2746
150.4929,132.2259
150.5416,132.1934
150.5990,132.1820
Z" /> 
<path style="fill:#000000; fill-opacity:1.0000; stroke:none;fill-rule:evenodd;"
d="M 153.1665,135.9580
153.1475,136.0537
153.0933,136.1348
153.0122,136.1890
152.9165,136.2080
152.3915,136.2080
152.2958,136.1890
152.2147,136.1348
152.1605,136.0537
152.1415,135.9580
152.1415,135.0580
152.1605,134.9623
152.2147,134.8812
152.2958,134.8270
152.3915,134.8080
152.9165,134.8080
153.0122,134.8270
153.0933,134.8812
153.1475,134.9623
153.1665,135.0580
Z" /> 
<path style="fill:#000000; fill-opacity:1.0000; stroke:none;fill-rule:evenodd;"
d="M 151.3415,135.9580
151.3225,136.0537
151.2683,136.1348
151.1872,136.1890
151.0915,136.2080
150.5665,136.2080
150.4708,136.1890
150.3897,136.1348
150.3355,136.0537
150.3165,135.9580
150.3165,135.0580
150.3355,134.9623
150.3897,134.8812
150.4708,134.8270
150.5665,134.8080
151.0915,134.8080
151.1872,134.8270
151.2683,134.8812
151.3225,134.9623
151.3415,135.0580
Z" /> 
<path style="fill:#000000; fill-opacity:1.0000; stroke:none;fill-rule:evenodd;"
d="M 154.4440,76.7620
154.3483,76.7430
154.2672,76.6888
154.2130,76.6077
154.1940,76.5120
154.1940,76.0120
154.2130,75.9163
154.2672,75.8352
154.3483,75.7810
154.4440,75.7620
155.9440,75.7620
156.0397,75.7810
156.1208,75.8352
156.1750,75.9163
156.1940,76.0120
156.1940,76.5120
156.1750,76.6077
156.1208,76.6888
156.0397,76.7430
155.9440,76.7620
Z" /> 
<path style="fill:#000000; fill-opacity:1.0000; stroke:none;fill-rule:evenodd;"
d="M 138.0160,98.4100
138.1117,98.4290
138.1928,98.4832
138.2470,98.5643
138.2660,98.6600
138.2660,99.3350
138.2470,99.4307
138.1928,99.5118
138.1117,99.5660
138.0160,99.5850
137.0660,99.5850
136.9703,99.5660
136.8892,99.5118
136.8350,99.4307
136.8160,99.3350
136.8160,98.6600
136.8350,98.5643
136.8892,98.4832
136.9703,98.4290
137.0660,98.4100
Z" /> 
<path style="fill:#000000; fill-opacity:1.0000; stroke:none;fill-rule:evenodd;"
d="M 138.0160,100.4850
138.1117,100.5040
138.1928,100.5582
138.2470,100.6393
138.2660,100.7350
138.2660,101.4100
138.2470,101.5057
138.1928,101.5868
138.1117,101.6410
138.0160,101.6600
137.0660,101.6600
136.9703,101.6410
136.8892,101.5868
136.8350,101.5057
136.8160,101.4100
136.8160,100.7350
136.8350,100.6393
136.8892,100.5582
136.9703,100.5040
137.0660,100.4850
Z" /> 
<path style="fill:#000000; fill-opacity:1.0000; stroke:none;fill-rule:evenodd;"
d="M 149.5180,109.2540
149.5370,109.1583
149.5912,109.0772
149.6723,109.0230
149.7680,109.0040
150.9680,109.0040
151.0637,109.0230
151.1448,109.0772
151.1990,109.1583
151.2180,109.2540
151.2180,110.4540
151.1990,110.5497
151.1448,110.6308
151.0637,110.6850
150.9680,110.7040
149.7680,110.7040
149.6723,110.6850
149.5912,110.6308
149.5370,110.5497
149.5180,110.4540
Z" /> 
</g>
<g style="fill:#000000; fill-opacity:1.0000; stroke:none;">
<circle cx="152.9080" cy="109.8540" r="0.8500" /> 
</g>
<g style="fill:#000000; fill-opacity:1.0000; stroke:none;">
<circle cx="150.3680" cy="107.3140" r="0.8500" /> 
</g>
<g style="fill:#000000; fill-opacity:1.0000; stroke:none;">
<circle cx="152.9080" cy="107.3140" r="0.8500" /> 
</g>
<g style="fill:#000000; fill-opacity:1.0000; stroke:none;">
<circle cx="150.3680" cy="104.7740" r="0.8500" /> 
</g>
<g style="fill:#000000; fill-opacity:1.0000; stroke:none;">
<circle cx="152.9080" cy="104.7740" r="0.8500" /> 
</g>
<g style="fill:#000000; fill-opacity:1.0000; stroke:none;">
<circle cx="150.3680" cy="102.2340" r="0.8500" /> 
</g>
<g style="fill:#000000; fill-opacity:1.0000; stroke:none;">
<circle cx="152.9080" cy="102.2340" r="0.8500" /> 
</g>
<g style="fill:#000000; fill-opacity:1.0000; stroke:none;">
<circle cx="150.3680" cy="99.6940" r="0.8500" /> 
</g>
<g style="fill:#000000; fill-opacity:1.0000; stroke:none;">
<circle cx="152.9080" cy="99.6940" r="0.8500" /> 
<path style="fill:#000000; fill-opacity:1.0000; stroke:none;fill-rule:evenodd;"
d="M 147.2190,56.2930
147.2380,56.1973
147.2922,56.1162
147.3733,56.0620
147.4690,56.0430
148.1440,56.0430
148.2397,56.0620
148.3208,56.1162
148.3750,56.1973
148.3940,56.2930
148.3940,57.2430
148.3750,57.3387
148.3208,57.4198
148.2397,57.4740
148.1440,57.4930
147.4690,57.4930
147.3733,57.4740
147.2922,57.4198
147.2380,57.3387
147.2190,57.2430
Z" /> 
<path style="fill:#000000; fill-opacity:1.0000; stroke:none;fill-rule:evenodd;"
d="M 149.2940,56.2930
149.3130,56.1973
149.3672,56.1162
149.4483,56.0620
149.5440,56.0430
150.2190,56.0430
150.3147,56.0620
150.3958,56.1162
150.4500,56.1973
150.4690,56.2930
150.4690,57.2430
150.4500,57.3387
150.3958,57.4198
150.3147,57.4740
150.2190,57.4930
149.5440,57.4930
149.4483,57.4740
149.3672,57.4198
149.3130,57.3387
149.2940,57.2430
Z" /> 
<path style="fill:#000000; fill-opacity:1.0000; stroke:none;fill-rule:evenodd;"
d="M 154.4440,72.0420
154.3483,72.0230
154.2672,71.9688
154.2130,71.8877
154.1940,71.7920
154.1940,71.2920
154.2130,71.1963
154.2672,71.1152
154.3483,71.0610
154.4440,71.0420
155.9440,71.0420
156.0397,71.0610
156.1208,71.1152
156.1750,71.1963
156.1940,71.2920
156.1940,71.7920
156.1750,71.8877
156.1208,71.9688
156.0397,72.0230
155.9440,72.0420
Z" /> 
</g>
<g style="fill:#000000; fill-opacity:1.0000; stroke:none;">
<circle cx="103.9240" cy="132.6500" r="1.6000" /> 
</g>
<g style="fill:#000000; fill-opacity:1.0000; stroke:none;">
<circle cx="109.9240" cy="132.6500" r="1.6000" /> 
</g>
<g style="fill:#000000; fill-opacity:1.0000; stroke:none;">
<circle cx="109.9240" cy="127.9000" r="1.6000" /> 
</g>
<g style="fill:#000000; fill-opacity:1.0000; stroke:none;">
<circle cx="103.9240" cy="127.9000" r="1.6000" /> 
</g>
<g style="fill:#000000; fill-opacity:1.0000; stroke:none;">
<circle cx="98.9240" cy="54.6500" r="3.1000" /> 
</g>
<g style="fill:#000000; fill-opacity:1.0000; stroke:none;">
<circle cx="94.9240" cy="110.9880" r="1.6000" /> 
</g>
<g style="fill:#000000; fill-opacity:1.0000; stroke:none;">
<circle cx="94.9240" cy="105.9880" r="1.6000" /> 
</g>
<g style="fill:#000000; fill-opacity:1.0000; stroke:none;">
<circle cx="94.9240" cy="100.9880" r="1.6000" /> 
</g>
<g style="fill:#000000; fill-opacity:1.0000; stroke:none;">
<circle cx="94.9240" cy="95.9880" r="1.6000" /> 
</g>
<g style="fill:#000000; fill-opacity:1.0000; stroke:none;">
<circle cx="94.9240" cy="90.9880" r="1.6000" /> 
</g>
<g style="fill:#000000; fill-opacity:1.0000; stroke:none;">
<circle cx="94.9240" cy="85.9880" r="1.6000" /> 
</g>
<g style="fill:#000000; fill-opacity:1.0000; stroke:none;">
<circle cx="94.9240" cy="80.9880" r="1.6000" /> 
</g>
<g style="fill:#000000; fill-opacity:1.0000; stroke:none;">
<circle cx="94.9240" cy="75.9880" r="1.6000" /> 
</g>
<g style="fill:#000000; fill-opacity:1.0000; stroke:none;">
<circle cx="106.9240" cy="72.9880" r="7.0000" /> 
</g> 
</svg>
